<svg id="SvgjsSvg1001" width="288" height="288" xmlns="http://www.w3.org/2000/svg" version="1.1" xmlns:xlink="http://www.w3.org/1999/xlink" xmlns:svgjs="http://svgjs.com/svgjs"><defs id="SvgjsDefs1002"></defs><g id="SvgjsG1008" transform="matrix(0.9167,0,0,0.9167,11.995201628541963,11.995200258183473)"><!--?xml version="1.0" encoding="UTF-8"?--><svg xmlns="http://www.w3.org/2000/svg" width="288" height="288" viewBox="0 0 24 24"><path d="M14.1 23.9l-.1-1.2c-.1-1-1-1.7-2-1.7s-1.8.7-2 1.7l-.2 1.1-1.1-.3c-1.9-.5-3.7-1.6-5.2-3l-.8-.8.9-.7c.8-.6 1-1.7.5-2.6-.5-.8-1.6-1.2-2.5-.9l-1.1.4-.1-.9c-.3-1-.4-2-.4-3s.1-2 .4-3l.3-1.1 1.1.4c.9.4 2 0 2.5-.9s.3-2-.5-2.6l-1-.6.8-.8C5.1 2 6.8 1 8.8.4L9.9.1l.1 1.2c.1 1 1 1.7 2 1.7s1.8-.7 2-1.7l.2-1.1 1.1.3c1.9.5 3.7 1.6 5.2 3l.8.8-.9.7c-.8.6-1 1.7-.5 2.6.4.6 1 1 1.7 1 .3 0 .5 0 .7-.1l1.1-.4.2.9c.2 1 .4 2 .4 3s-.1 2-.4 3l-.3 1.1-1.1-.4c-.9-.4-2 0-2.5.9s-.3 2 .5 2.6l.9.7-.8.8c-1.4 1.4-3.2 2.4-5.2 3l-1 .2zM12 19c1.6 0 3 .9 3.6 2.3.9-.4 1.8-.9 2.6-1.5-.9-1.2-1-2.9-.2-4.3.8-1.3 2.3-2.1 3.8-2 .2-.5.2-1 .2-1.5s0-1-.1-1.5h-.4c-1.4 0-2.8-.8-3.5-2-.8-1.4-.7-3.1.2-4.3-.8-.6-1.7-1.2-2.6-1.5C15 4.1 13.6 5 12 5s-3-.9-3.6-2.3c-1 .3-1.9.9-2.7 1.5.9 1.2 1 2.9.2 4.3-.8 1.3-2.3 2.1-3.8 2-.1.5-.1 1-.1 1.5s0 1 .1 1.5c1.5-.1 3 .6 3.8 2 .8 1.4.7 3.1-.2 4.3.8.6 1.7 1.2 2.6 1.5C9 19.9 10.4 19 12 19z" fill="#00f7ce" class="color000 svgShape"></path><path d="M12 16c-2.2 0-4-1.8-4-4s1.8-4 4-4 4 1.8 4 4-1.8 4-4 4zm0-6c-1.1 0-2 .9-2 2s.9 2 2 2 2-.9 2-2-.9-2-2-2z" fill="#00f7ce" class="color000 svgShape"></path><metadata><rdf:rdf xmlns:rdf="http://www.w3.org/1999/02/22-rdf-syntax-ns#" xmlns:rdfs="http://www.w3.org/2000/01/rdf-schema#" xmlns:dc="http://purl.org/dc/elements/1.1/"><rdf:description about="https://iconscout.com/legal#licenses" dc:title="settings" dc:description="settings" dc:publisher="Iconscout" dc:date="2017-09-14" dc:format="image/svg+xml" dc:language="en"><dc:creator><rdf:bag><rdf:li>Cosmin Negoita</rdf:li></rdf:bag></dc:creator></rdf:description></rdf:rdf></metadata></svg></g></svg>