<svg xmlns="http://www.w3.org/2000/svg" xmlns:svgjs="http://svgjs.com/svgjs" xmlns:xlink="http://www.w3.org/1999/xlink" id="SvgjsSvg1001" width="288" height="288" version="1.1"><g id="SvgjsG1008" transform="matrix(0.9167,0,0,0.9167,11.995200000000011,11.995200000000011)"><svg xmlns="http://www.w3.org/2000/svg" xmlns:xlink="http://www.w3.org/1999/xlink" width="288" height="288" version="1.1" viewBox="0 0 38 48"><title>stackoverflow-black</title><g id="Icons" fill="none" fill-rule="evenodd" stroke="none" stroke-width="1"><g id="Black" fill="#7bbab6" class="color000 svgShape" transform="translate(-807.000000, -952.000000)"><g id="stackoverflow" fill="#7bbab6" class="color000 svgShape" transform="translate(807.000000, 952.000000)"><path fill="#7bbab6" d="M25.086 41.592l-19.111.01-.002-4.048 19.11-.01.003 4.048zM38 18.671L34.73 0 30.71.692l3.269 18.67L38 18.672zM25.546 32.355l-19.03-1.739-.375 4.031 19.03 1.737.375-4.03zm1.255-5.282l-18.455-4.92-1.06 3.91 18.456 4.919 1.059-3.909zm2.41-4.63l-16.462-9.627-2.074 3.486 16.462 9.627 2.073-3.485zm4.036-2.834L22.479 3.952l-3.372 2.28 10.768 15.656 3.372-2.28z" class="color000 svgShape"/><path id="stackoverflow-icon-path" fill="#7bbab6" d="M28.332 28.278v16.546H3.265V28.278H0V48h31.58V28.278z" class="color000 svgShape"/></g></g></g><metadata><rdf:rdf xmlns:dc="http://purl.org/dc/elements/1.1/" xmlns:rdf="http://www.w3.org/1999/02/22-rdf-syntax-ns#" xmlns:rdfs="http://www.w3.org/2000/01/rdf-schema#"><rdf:description about="https://iconscout.com/legal#licenses" dc:date="2017-09-14" dc:description="stackoverflow,black" dc:format="image/svg+xml" dc:language="en" dc:publisher="Iconscout" dc:title="stackoverflow,black"><dc:creator><rdf:bag><rdf:li>Alexis Doreau</rdf:li></rdf:bag></dc:creator></rdf:description></rdf:rdf></metadata></svg></g></svg>